<?xml version="1.0" encoding="UTF-8" standalone="no"?>
<svg width="100%" height="100%" viewBox="0 0 2048 2048" version="1.1" xmlns="http://www.w3.org/2000/svg" xmlns:xlink="http://www.w3.org/1999/xlink" xml:space="preserve" xmlns:serif="http://www.serif.com/" style="fill-rule:evenodd;clip-rule:evenodd;stroke-linejoin:round;stroke-miterlimit:2;">
    <g transform="matrix(1,0,0,1,128,-0)">
        <path d="M896,508.364C896,484.391 909.398,462.427 930.715,451.457C952.031,440.488 977.691,442.351 997.199,456.285C1179.672,586.623 1559.645,858.032 1719.089,971.921C1735.908,983.935 1745.89,1003.331 1745.89,1024C1745.89,1044.669 1735.908,1064.065 1719.089,1076.079C1559.645,1189.968 1179.672,1461.377 997.199,1591.715C977.691,1605.649 952.031,1607.512 930.715,1596.543C909.398,1585.573 896,1563.609 896,1539.636L896,1177.611C896,1165.624 889.301,1154.642 878.643,1149.157C867.984,1143.672 855.154,1144.604 845.4,1151.571C720.466,1240.81 395.47,1472.95 229.199,1591.715C209.691,1605.649 184.031,1607.512 162.715,1596.543C141.398,1585.573 128,1563.609 128,1539.636L128,508.364C128,484.391 141.398,462.427 162.715,451.457C184.031,440.488 209.691,442.351 229.199,456.285C395.47,575.05 720.466,807.19 845.4,896.429C855.154,903.396 867.984,904.328 878.643,898.843C889.301,893.358 896,882.376 896,870.389C896,782.789 896,621.162 896,508.364Z" style="fill:white;"/>
    </g>
</svg>
